<svg height="512pt" viewBox="-102 0 512 512" width="512pt" xmlns="http://www.w3.org/2000/svg"><path d="m308.625 162.960938h-222.386719l-39.054687-89.5625h222.386718zm0 0" fill="#eeedee"/><path d="m269.570312 73.398438h-32.96875l39.058594 89.5625h32.964844zm0 0" fill="#d6d5d6"/><path d="m47.183594 73.398438-47.183594 89.5625h86.210938zm0 0" fill="#d6d5d6"/><path d="m284.859375 512h-198.648437v-349.039062h222.414062v325.273437c0 13.125-10.640625 23.765625-23.765625 23.765625zm0 0" fill="#dbdbdb"/><path d="m275.660156 162.960938v324.601562c0 13.496094-10.960937 24.4375-24.484375 24.4375h32.964844c13.523437 0 24.484375-10.941406 24.484375-24.4375v-324.601562zm0 0" fill="#d1d1d1"/><path d="m86.210938 512h-62.445313c-13.125 0-23.765625-10.640625-23.765625-23.765625v-325.273437h86.210938zm0 0" fill="#bfbfbf"/><path d="m218.664062 114.628906c0-8.371094-9.511718-15.152344-21.246093-15.152344s-21.246094 6.78125-21.246094 15.152344c0 8.367188 9.511719 15.148438 21.246094 15.148438s21.246093-6.78125 21.246093-15.148438zm0 0" fill="#b0b0b0"/><path d="m0 275.574219h86.210938v135.65625h-86.210938zm0 0" fill="#5d8fbf"/><path d="m86.210938 275.574219h222.414062v135.65625h-222.414062zm0 0" fill="#68a1d7"/><path d="m275.660156 275.574219h32.964844v135.65625h-32.964844zm0 0" fill="#5d8fbf"/><path d="m221.867188 354.238281c0 13.503907-10.945313 24.449219-24.449219 24.449219-13.503907 0-24.449219-10.945312-24.449219-24.449219 0-9.308593 11.621094-27.703125 18.835938-38.230469 2.703124-3.9375 8.523437-3.9375 11.222656 0 7.21875 10.527344 18.839844 28.921876 18.839844 38.230469zm0 0" fill="#ebebeb"/><path d="m255.917969 0h-195.085938c-7.539062 0-13.648437 6.109375-13.648437 13.648438v59.75h222.386718v-59.75c0-7.539063-6.113281-13.648438-13.652343-13.648438zm0 0" fill="#919191"/><path d="m255.917969 0h-31.144531c7.539062 0 13.652343 6.109375 13.652343 13.648438v59.75h31.144531v-59.75c0-7.539063-6.113281-13.648438-13.652343-13.648438zm0 0" fill="#7a7a7a"/></svg>